<svg xmlns="http://www.w3.org/2000/svg" width="780" height="390" viewBox="0 0 780 390">
  <defs>
    <marker id="arrow" markerWidth="10" markerHeight="7" refX="9" refY="3.5" orient="auto">
      <polygon points="0 0, 10 3.5, 0 7" fill="#c45c26"/>
    </marker>
  </defs>
  <rect width="100%" height="100%" fill="white"/>
  <text x="24" y="32" font-family="Calibri, Arial" font-size="18" fill="#0f3d5e" font-weight="bold">6. Approval-gated CRM write</text>
  
    <rect x="40" y="80" width="220" height="80" rx="8" fill="#0f3d5e"/>
    <text x="150.0" y="113.0" text-anchor="middle" fill="white" font-family="Calibri, Arial" font-size="13"><tspan x="150.0" dy="0">Policy_Audit</tspan><tspan x="150.0" dy="1.2em">Recommended_Payload</tspan></text>
    <rect x="320" y="80" width="220" height="80" rx="8" fill="#c45c26"/>
    <text x="430.0" y="106.0" text-anchor="middle" fill="white" font-family="Calibri, Arial" font-size="13"><tspan x="430.0" dy="0">Lamar sets</tspan><tspan x="430.0" dy="1.2em">Approved_To_Push</tspan><tspan x="430.0" dy="1.2em">+ By + At</tspan></text>
    <rect x="600" y="80" width="140" height="80" rx="8" fill="#1f6f8b"/>
    <text x="670.0" y="120.0" text-anchor="middle" fill="white" font-family="Calibri, Arial" font-size="13"><tspan x="670.0" dy="0">At &lt; 24h?</tspan></text>
    <rect x="320" y="220" width="220" height="80" rx="8" fill="#0f3d5e"/>
    <text x="430.0" y="253.0" text-anchor="middle" fill="white" font-family="Calibri, Arial" font-size="13"><tspan x="430.0" dy="0">zoho.crm.updateRecord</tspan><tspan x="430.0" dy="1.2em">Policies only</tspan></text>
    <rect x="40" y="220" width="220" height="80" rx="8" fill="#9b2c2c"/>
    <text x="150.0" y="253.0" text-anchor="middle" fill="white" font-family="Calibri, Arial" font-size="13"><tspan x="150.0" dy="0">STOP</tspan><tspan x="150.0" dy="1.2em">gate failed</tspan></text>
    <rect x="600" y="220" width="140" height="80" rx="8" fill="#2f855a"/>
    <text x="670.0" y="246.0" text-anchor="middle" fill="white" font-family="Calibri, Arial" font-size="13"><tspan x="670.0" dy="0">Clear flag</tspan><tspan x="670.0" dy="1.2em">Sync=Pending</tspan><tspan x="670.0" dy="1.2em">history row</tspan></text><text x="40" y="360" font-family="Calibri, Arial" font-size="12" fill="#333">Never create Accounts. Never call NowCerts from Creator. Policy create drafts stay human.</text><line x1="260" y1="120" x2="320" y2="120" stroke="#c45c26" stroke-width="2" marker-end="url(#arrow)"/><line x1="540" y1="120" x2="600" y2="120" stroke="#c45c26" stroke-width="2" marker-end="url(#arrow)"/><line x1="670" y1="160" x2="670" y2="220" stroke="#c45c26" stroke-width="2" marker-end="url(#arrow)"/><line x1="600" y1="160" x2="150" y2="220" stroke="#c45c26" stroke-width="2" marker-end="url(#arrow)"/><line x1="540" y1="260" x2="600" y2="260" stroke="#c45c26" stroke-width="2" marker-end="url(#arrow)"/>
</svg>